<?xml version="1.0" encoding="UTF-8" standalone="no"?>
<!DOCTYPE svg PUBLIC "-//W3C//DTD SVG 1.1//EN" "http://www.w3.org/Graphics/SVG/1.1/DTD/svg11.dtd">
<svg width="100%" height="100%" viewBox="0 0 67 62" version="1.1" xmlns="http://www.w3.org/2000/svg" xmlns:xlink="http://www.w3.org/1999/xlink" xml:space="preserve" style="fill-rule:evenodd;clip-rule:evenodd;stroke-linecap:round;stroke-linejoin:round;stroke-miterlimit:1.5;">
    <g transform="matrix(1,0,0,1,-7,-4)">
        <g transform="matrix(1,0,0,1,-34.7946,-21.3875)">
            <path d="M43.018,85.798C43.018,85.798 43.018,47.197 43.018,37.277C43.018,35.758 43.326,34.255 43.923,32.858C44.122,32.394 44.329,31.91 44.516,31.473C44.95,30.458 45.609,29.556 46.445,28.836C46.614,28.69 46.793,28.536 46.976,28.378C48.78,26.821 51.084,25.965 53.467,25.965C53.467,25.965 53.467,25.965 53.467,25.965C55.226,25.965 56.941,26.516 58.371,27.54C58.46,27.603 58.549,27.667 58.639,27.731C60.386,28.982 61.809,30.631 62.792,32.541C63.762,34.429 64.934,36.708 65.423,37.66C65.578,37.961 65.724,38.266 65.863,38.575C66.653,40.346 69.464,46.639 69.98,47.795C70.034,47.917 70.09,48.039 70.147,48.16C70.663,49.268 73.385,55.102 74.002,56.426C74.085,56.604 74.166,56.783 74.245,56.963C74.576,57.718 75.528,59.891 76.172,61.362C76.59,62.317 77.137,63.21 77.798,64.016C78.363,64.706 79.054,65.55 79.549,66.155C79.978,66.679 80.484,67.135 81.05,67.507C81.199,67.606 81.359,67.711 81.518,67.816C82.402,68.397 83.436,68.707 84.494,68.707L85.579,68.707C86.461,68.707 87.31,68.372 87.953,67.769C87.953,67.769 87.953,67.769 87.953,67.769C88.813,66.964 89.439,65.94 89.764,64.807C89.977,64.065 90.209,63.257 90.351,62.763C90.44,62.452 90.509,62.136 90.558,61.816C90.631,61.336 90.746,60.58 90.84,59.959C90.947,59.255 91.016,58.547 91.047,57.836C91.153,55.338 91.415,49.195 91.487,47.518C91.499,47.231 91.507,46.945 91.51,46.658C91.533,44.349 91.645,33.507 91.649,33.122C91.649,33.115 91.649,33.108 91.649,33.101C91.653,32.799 91.73,26.059 91.73,26.059L107.919,26.059C107.919,26.059 107.31,39.959 107.133,44.005C107.102,44.733 107.05,45.46 106.979,46.186C106.757,48.453 106.249,53.641 106.049,55.68C105.994,56.243 105.926,56.805 105.844,57.365C105.611,58.953 105.114,62.356 104.924,63.659C104.873,64.008 104.817,64.356 104.757,64.703C104.65,65.321 104.463,66.397 104.287,67.415C103.993,69.106 103.591,70.777 103.084,72.417C102.888,73.048 102.676,73.734 102.473,74.389C101.859,76.375 101.028,78.287 99.997,80.091C99.997,80.092 99.997,80.092 99.997,80.092C99.155,81.565 98.024,82.852 96.673,83.877C96.543,83.976 96.415,84.073 96.291,84.167C95.479,84.782 94.6,85.303 93.672,85.721C93.507,85.795 93.335,85.872 93.163,85.949C91.74,86.588 90.199,86.919 88.64,86.919C87.489,86.919 86.352,86.919 86.352,86.919C86.352,86.919 85.748,86.919 84.987,86.919C82.984,86.919 81.013,86.414 79.257,85.452C79.257,85.452 79.257,85.452 79.257,85.452C78.178,84.86 77.162,84.161 76.225,83.363C75.234,82.52 73.935,81.414 73.061,80.67C72.419,80.124 71.818,79.533 71.261,78.901C71.166,78.793 71.065,78.678 70.959,78.558C68.234,75.466 65.922,72.035 64.079,68.349C64.079,68.349 64.079,68.349 64.079,68.349C63.809,67.81 63.515,67.283 63.197,66.771C62.106,65.012 59.521,60.846 59.521,60.846L59.521,85.798L43.018,85.798Z" style="fill:rgb(33,33,33);stroke:rgb(33,33,33);stroke-width:0.75px;"/>
        </g>
    </g>
</svg>
